<?xml version="1.0" standalone="no"?>
<!DOCTYPE svg PUBLIC "-//W3C//DTD SVG 20010904//EN"
 "http://www.w3.org/TR/2001/REC-SVG-20010904/DTD/svg10.dtd">
<svg version="1.0" xmlns="http://www.w3.org/2000/svg"
 width="640.000000pt" height="640.000000pt" viewBox="0 0 640.000000 640.000000"
 preserveAspectRatio="xMidYMid meet">
<metadata>
Created by potrace 1.11, written by Peter Selinger 2001-2013
</metadata>
<g transform="translate(0.000000,640.000000) scale(0.100000,-0.100000)"
fill="#000000" stroke="none">
<path d="M0 5620 c0 -20 7 -20 3200 -20 3193 0 3200 0 3200 20 0 20 -7 20
-3200 20 -3193 0 -3200 0 -3200 -20z"/>
<path d="M0 5580 c0 -7 1073 -10 3200 -10 2127 0 3200 3 3200 10 0 7 -1073 10
-3200 10 -2127 0 -3200 -3 -3200 -10z"/>
<path d="M360 5510 c0 -5 9 -10 20 -10 11 0 20 5 20 10 0 6 -9 10 -20 10 -11
0 -20 -4 -20 -10z"/>
<path d="M765 5510 c-3 -5 3 -10 14 -10 12 0 21 5 21 10 0 6 -6 10 -14 10 -8
0 -18 -4 -21 -10z"/>
<path d="M1340 5510 c-13 -8 -12 -10 3 -10 9 0 17 5 17 10 0 12 -1 12 -20 0z"/>
<path d="M1600 5510 c0 -5 9 -10 21 -10 11 0 17 5 14 10 -3 6 -13 10 -21 10
-8 0 -14 -4 -14 -10z"/>
<path d="M1740 5510 c-13 -8 -12 -10 3 -10 9 0 17 5 17 10 0 12 -1 12 -20 0z"/>
<path d="M2000 5510 c0 -5 9 -10 20 -10 11 0 20 5 20 10 0 6 -9 10 -20 10 -11
0 -20 -4 -20 -10z"/>
<path d="M2140 5510 c-13 -8 -12 -10 3 -10 9 0 17 5 17 10 0 12 -1 12 -20 0z"/>
<path d="M2560 5510 c0 -5 9 -10 21 -10 11 0 17 5 14 10 -3 6 -13 10 -21 10
-8 0 -14 -4 -14 -10z"/>
<path d="M2680 5510 c0 -5 9 -10 20 -10 11 0 20 5 20 10 0 6 -9 10 -20 10 -11
0 -20 -4 -20 -10z"/>
<path d="M3085 5510 c-3 -5 3 -10 14 -10 12 0 21 5 21 10 0 6 -6 10 -14 10 -8
0 -18 -4 -21 -10z"/>
<path d="M3245 5510 c-3 -5 3 -10 14 -10 12 0 21 5 21 10 0 6 -6 10 -14 10 -8
0 -18 -4 -21 -10z"/>
<path d="M3440 5510 c0 -5 5 -10 10 -10 6 0 10 5 10 10 0 6 -4 10 -10 10 -5 0
-10 -4 -10 -10z"/>
<path d="M3500 5510 c0 -5 5 -10 10 -10 6 0 10 5 10 10 0 6 -4 10 -10 10 -5 0
-10 -4 -10 -10z"/>
<path d="M3650 5510 c0 -5 7 -10 15 -10 8 0 15 5 15 10 0 6 -7 10 -15 10 -8 0
-15 -4 -15 -10z"/>
<path d="M3920 5510 c0 -5 9 -10 21 -10 11 0 17 5 14 10 -3 6 -13 10 -21 10
-8 0 -14 -4 -14 -10z"/>
<path d="M4060 5510 c-13 -8 -12 -10 3 -10 9 0 17 5 17 10 0 12 -1 12 -20 0z"/>
<path d="M4320 5510 c0 -5 9 -10 21 -10 11 0 17 5 14 10 -3 6 -13 10 -21 10
-8 0 -14 -4 -14 -10z"/>
<path d="M4880 5510 c0 -5 9 -10 21 -10 11 0 17 5 14 10 -3 6 -13 10 -21 10
-8 0 -14 -4 -14 -10z"/>
<path d="M5000 5510 c0 -5 9 -10 20 -10 11 0 20 5 20 10 0 6 -9 10 -20 10 -11
0 -20 -4 -20 -10z"/>
<path d="M5405 5510 c-3 -5 3 -10 14 -10 12 0 21 5 21 10 0 6 -6 10 -14 10 -8
0 -18 -4 -21 -10z"/>
<path d="M5760 5510 c0 -5 5 -10 10 -10 6 0 10 5 10 10 0 6 -4 10 -10 10 -5 0
-10 -4 -10 -10z"/>
<path d="M5820 5510 c0 -5 5 -10 10 -10 6 0 10 5 10 10 0 6 -4 10 -10 10 -5 0
-10 -4 -10 -10z"/>
<path d="M5970 5510 c0 -5 7 -10 15 -10 8 0 15 5 15 10 0 6 -7 10 -15 10 -8 0
-15 -4 -15 -10z"/>
<path d="M6240 5510 c0 -5 9 -10 21 -10 11 0 17 5 14 10 -3 6 -13 10 -21 10
-8 0 -14 -4 -14 -10z"/>
<path d="M6380 5510 c-13 -8 -12 -10 3 -10 9 0 17 5 17 10 0 12 -1 12 -20 0z"/>
<path d="M0 3320 c0 -1590 3 -2160 11 -2160 8 0 8 -5 -1 -15 -10 -12 -10 -15
0 -15 9 0 10 -3 1 -14 -8 -9 -11 -115 -9 -369 l3 -356 116 112 c64 62 145 134
179 162 35 27 68 54 74 60 26 24 129 98 231 166 61 40 112 77 113 81 2 4 8 8
13 8 5 0 56 26 113 59 57 32 118 65 135 72 17 8 31 17 31 21 0 13 -17 9 -30
-7 -8 -10 -21 -13 -33 -9 -13 4 -17 2 -13 -5 4 -6 3 -11 -3 -11 -5 0 -13 5
-17 11 -4 7 -27 10 -60 7 -30 -3 -54 -2 -54 2 0 4 -54 7 -120 7 -66 0 -120 -3
-120 -6 0 -3 -38 -6 -84 -6 -46 0 -82 3 -80 7 5 8 -301 2 -316 -7 -6 -4 -9 -1
-8 7 2 9 -6 12 -25 10 -15 -1 -27 -1 -27 2 0 2 14 19 31 37 24 25 39 33 63 32
17 -1 230 -2 473 -3 404 -1 444 -3 454 -18 8 -13 9 -13 6 -2 -4 12 4 16 37 17
33 0 36 -1 16 -7 -24 -8 -24 -8 -2 -9 23 -1 126 48 118 56 -7 8 -45 -7 -62
-24 -11 -12 -18 -13 -23 -5 -8 13 -1002 19 -1022 6 -6 -3 -14 -2 -18 4 -3 5
-17 -5 -31 -24 -24 -32 -40 -43 -40 -26 0 16 68 74 79 68 6 -4 9 -1 6 7 -7 17
122 140 137 131 7 -4 8 -3 4 5 -8 12 38 56 59 56 5 0 15 3 20 7 6 3 24 5 42 3
18 -1 30 2 27 7 -3 5 -14 6 -24 3 -10 -3 -21 -1 -25 5 -6 10 31 47 81 80 12 8
72 50 133 93 89 63 115 76 126 67 8 -6 24 -10 37 -7 20 4 20 4 -4 6 l-28 1 0
1049 0 1049 33 6 c17 3 119 11 225 17 230 14 507 7 615 -15 128 -26 256 -84
351 -159 58 -46 151 -168 191 -250 142 -296 151 -875 19 -1196 -62 -149 -137
-251 -247 -335 -94 -71 -198 -122 -316 -154 -94 -26 -102 -27 -396 -26 -165 0
-324 3 -352 7 -51 7 -53 7 -53 -16 0 -21 6 -25 46 -31 26 -3 71 -6 100 -6 30
0 54 -3 54 -7 0 -5 42 -7 92 -5 51 2 88 -1 81 -5 -6 -4 60 -8 147 -8 87 0 156
3 153 8 -2 4 11 7 30 7 19 0 79 9 132 19 53 11 104 17 113 14 11 -3 13 -2 5 4
-8 6 14 20 65 43 159 70 300 199 371 338 13 26 26 40 33 36 7 -4 8 -3 4 4 -4
7 6 49 23 94 16 46 32 95 35 109 6 28 27 36 138 54 l38 6 3 -328 c1 -180 3
146 5 725 l2 1052 690 0 690 0 -2 -182 -3 -183 -477 -3 -478 -2 0 -240 0 -240
446 0 447 0 -7 -37 c-3 -21 -6 -104 -6 -185 l0 -148 -440 0 -440 0 0 -256 0
-255 33 3 32 3 5 168 5 168 355 -4 c280 -4 393 -9 535 -26 168 -20 409 -59
500 -81 22 -5 50 -10 62 -10 l22 0 -24 73 c-13 39 -67 214 -120 387 -54 173
-119 385 -145 470 -49 158 -142 461 -166 538 l-13 42 233 0 233 0 21 -82 c18
-71 202 -733 359 -1285 25 -90 50 -163 54 -163 8 0 21 42 34 110 4 19 15 64
25 100 10 36 48 178 85 315 110 410 183 684 214 795 16 58 35 129 42 158 l13
52 218 0 c238 0 223 4 197 -55 -8 -19 -609 -2022 -609 -2031 0 -2 -94 -4 -210
-4 -142 0 -210 -3 -210 -11 0 -6 5 -19 10 -30 10 -18 23 -19 238 -19 172 1
231 4 244 14 10 7 16 15 13 17 -2 3 10 52 27 109 16 58 33 113 35 122 3 10 10
15 16 11 6 -3 7 -1 3 5 -9 15 3 82 15 82 16 0 265 -123 376 -186 161 -91 314
-194 308 -205 -4 -5 -3 -8 2 -7 14 4 53 -13 53 -23 0 -5 4 -9 10 -9 10 0 67
-41 146 -107 24 -19 41 -40 37 -46 -3 -5 -1 -7 4 -4 6 4 36 -16 68 -44 80 -70
87 -78 80 -88 -3 -5 0 -13 6 -16 5 -4 8 -14 4 -22 -4 -13 -3 -14 10 -3 14 11
13 14 -2 26 -10 7 -13 14 -7 14 6 0 21 -11 34 -25 18 -19 21 -28 12 -37 -6 -6
-15 -8 -19 -4 -4 4 -1 11 7 16 8 6 10 10 4 10 -6 0 -17 -7 -24 -15 -11 -14
-74 -15 -506 -13 -323 2 -495 0 -498 -7 -2 -6 -9 -5 -17 2 -16 16 -29 17 -29
3 0 -6 12 -15 28 -21 15 -5 66 -30 115 -54 48 -25 87 -42 87 -37 0 4 5 -1 11
-11 7 -12 17 -16 31 -11 14 4 18 2 14 -5 -4 -6 3 -15 16 -21 13 -5 32 -16 43
-22 64 -41 126 -78 131 -78 2 0 10 -5 17 -10 17 -15 118 -80 123 -80 3 0 2 6
-2 13 -4 7 -3 9 2 4 5 -5 9 -12 9 -17 0 -4 38 -36 85 -71 107 -79 245 -194
333 -278 l67 -64 0 335 0 335 -120 0 c-95 0 -120 -3 -120 -14 0 -10 -5 -11
-19 -3 -25 13 -118 13 -126 0 -4 -6 -11 -8 -16 -4 -5 3 -7 9 -4 14 5 7 -181 6
-405 -4 -30 -1 -62 1 -70 5 -41 20 -111 49 -119 49 -5 0 -14 6 -20 14 -11 12
54 15 466 16 299 0 479 4 481 10 2 6 8 10 13 10 6 0 7 -4 4 -10 -11 -18 14
-11 35 10 20 20 20 33 20 2140 l0 2120 -3200 0 -3200 0 0 -2160z m4523 1515
c9 -20 17 -40 17 -44 0 -5 61 -145 136 -311 74 -166 134 -303 132 -305 -2 -2
-25 -5 -53 -7 l-49 -3 -24 50 c-14 28 -25 55 -26 60 -11 57 -6 55 -160 55
l-143 0 -33 -75 c-36 -82 -50 -95 -104 -95 -29 0 -36 4 -36 19 0 11 63 156
140 323 156 335 172 368 180 368 4 0 14 -16 23 -35z m-1857 -24 c67 -35 121
-93 161 -173 23 -45 27 -66 27 -138 0 -103 -21 -156 -90 -230 -63 -68 -136
-102 -229 -108 -155 -10 -280 61 -342 193 -24 52 -27 71 -26 145 2 99 2 102
30 156 25 46 62 87 116 129 99 74 243 85 353 26z m629 -1 c68 -26 122 -77 163
-155 24 -45 27 -61 27 -155 0 -98 -2 -109 -30 -159 -34 -62 -91 -115 -154
-143 -37 -17 -173 -34 -308 -38 -10 0 -13 80 -15 343 l-3 342 130 -6 c99 -5
144 -12 190 -29z m752 27 c11 -1 19 -5 17 -8 -2 -3 8 -11 21 -17 23 -10 25
-17 25 -72 l0 -60 -53 30 c-103 58 -200 50 -284 -23 -60 -54 -83 -104 -83
-188 0 -153 101 -247 255 -237 49 3 74 11 115 36 l51 32 -3 -63 c-3 -61 -3
-62 -42 -81 -64 -31 -178 -33 -262 -6 -124 42 -210 153 -221 287 -13 163 91
318 246 368 41 13 111 14 218 2z m1135 1 c9 -1 15 -5 12 -9 -2 -4 6 -14 19
-22 12 -8 30 -28 39 -45 l18 -30 -40 -26 c-45 -30 -50 -31 -50 -13 0 39 -80
68 -130 47 -36 -15 -50 -37 -50 -79 0 -34 31 -60 95 -79 22 -7 64 -26 93 -43
45 -25 58 -40 79 -86 20 -44 24 -65 20 -104 -17 -145 -145 -221 -299 -179 -45
13 -100 74 -116 129 -17 54 -16 58 17 64 16 3 40 9 55 13 24 6 26 3 32 -34 9
-59 42 -86 102 -84 59 3 102 43 102 96 0 42 -9 68 -21 60 -5 -3 -6 2 -3 10 4
10 -15 24 -70 50 -41 20 -79 36 -84 36 -5 0 -21 9 -36 21 -14 11 -31 17 -37
13 -7 -4 -9 -3 -5 4 3 6 -3 26 -14 44 -38 62 -23 143 37 200 58 55 93 62 235
46z m-4242 -48 l0 -49 -132 -3 -133 -3 -3 -77 -3 -78 137 0 137 0 -7 -31 c-3
-17 -6 -40 -6 -50 0 -18 -10 -19 -130 -19 l-130 0 0 -109 0 -109 135 5 135 6
0 -50 0 -51 -182 -4 c-101 -3 -184 -4 -185 -4 -4 2 -9 652 -6 664 4 9 50 12
189 12 l184 0 0 -50z m232 31 c-2 -8 3 -18 10 -22 10 -7 10 -9 1 -9 -10 0 -13
-60 -13 -265 l0 -264 98 2 97 2 -3 -45 c-2 -24 -4 -45 -5 -46 -1 -1 -67 -3
-147 -5 l-145 -4 -3 325 c-1 179 0 331 3 338 7 19 111 12 107 -7z m820 -10
c115 -55 141 -220 49 -312 -40 -41 -91 -59 -163 -59 l-48 0 0 -134 0 -135 -44
-6 c-25 -4 -49 -4 -55 0 -8 4 -11 114 -11 342 l0 336 113 -5 c90 -3 122 -9
159 -27z m3766 -18 l-3 -48 -75 -5 -75 -5 -3 -281 -2 -282 -23 -6 c-12 -3 -34
-6 -49 -6 l-28 0 0 291 0 290 -77 -3 -78 -3 -3 39 c-6 69 -14 66 214 66 l206
0 -4 -47z m79 -80 c-2 -16 -4 -5 -4 22 0 28 2 40 4 28 2 -13 2 -35 0 -50z
m-1650 -50 c-2 -16 -4 -3 -4 27 0 30 2 43 4 28 2 -16 2 -40 0 -55z m-150 21
c-3 -3 -12 -4 -19 -1 -8 3 -5 6 6 6 11 1 17 -2 13 -5z m1040 -76 c-3 -7 -5 -2
-5 12 0 14 2 19 5 13 2 -7 2 -19 0 -25z m-2150 -1590 c-2 -35 -3 -7 -3 62 0
69 1 97 3 63 2 -35 2 -91 0 -125z m-2067 -1912 c0 -2 -9 -6 -20 -9 -11 -3 -20
-1 -20 4 0 5 9 9 20 9 11 0 20 -2 20 -4z m4800 -6 c0 -5 -2 -10 -4 -10 -3 0
-8 5 -11 10 -3 6 -1 10 4 10 6 0 11 -4 11 -10z m-4750 -10 c0 -5 -7 -10 -16
-10 -8 0 -12 5 -9 10 3 6 10 10 16 10 5 0 9 -4 9 -10z m4700 -11 c0 -5 -4 -9
-8 -9 -5 0 -9 7 -9 15 0 8 4 12 9 9 4 -3 8 -9 8 -15z m-4755 -9 c-3 -5 -11
-10 -16 -10 -6 0 -7 5 -4 10 3 6 11 10 16 10 6 0 7 -4 4 -10z m-86 -61 c-28
-21 -35 -23 -44 -9 -3 6 1 7 9 4 9 -3 16 -2 16 4 0 6 -6 12 -12 15 -7 2 2 4
21 4 l33 0 -23 -18z m4983 -11 c-6 -6 -15 -8 -19 -4 -4 4 -1 11 7 16 19 12 27
3 12 -12z"/>
<path d="M4446 4535 c-26 -59 -45 -109 -42 -112 2 -3 45 -1 94 3 l90 9 -22 45
c-12 25 -27 63 -33 85 -27 88 -34 86 -87 -30z"/>
<path d="M2432 4738 c-47 -16 -117 -81 -141 -131 -26 -53 -28 -151 -5 -205 21
-51 70 -100 122 -123 52 -22 148 -25 195 -6 126 53 182 206 122 335 -14 30
-29 51 -35 47 -6 -4 -10 -3 -9 2 4 23 -5 34 -46 59 -52 30 -148 41 -203 22z
m125 -54 c-3 -3 -12 -4 -19 -1 -8 3 -5 6 6 6 11 1 17 -2 13 -5z"/>
<path d="M3088 4734 c-5 -4 -8 -113 -8 -242 l0 -235 58 7 c92 11 131 25 173
63 53 48 72 93 72 173 1 104 -58 197 -138 219 -58 15 -149 24 -157 15z"/>
<path d="M1830 4636 l0 -106 33 0 c47 1 121 36 113 56 -3 8 -2 13 3 10 12 -8
18 32 11 68 -7 39 -45 65 -108 73 l-52 6 0 -107z"/>
<path d="M1133 3453 l-23 -4 0 -700 0 -699 124 0 c68 0 126 4 128 8 4 11 163
72 187 72 11 0 23 5 26 10 4 6 10 8 15 5 13 -8 91 84 116 139 13 29 34 88 46
132 20 72 22 103 22 344 0 240 -2 272 -21 342 -29 104 -65 171 -126 236 -90
95 -174 123 -360 121 -62 -1 -122 -4 -134 -6z"/>
<path d="M3820 1871 l0 -161 -660 0 -660 0 0 -30 0 -30 703 0 702 0 -5 188 -5
187 -37 3 -38 3 0 -160z"/>
<path d="M1932 1781 c-11 -7 -11 -9 0 -14 9 -3 15 1 15 9 0 8 -1 14 -1 14 -1
0 -7 -4 -14 -9z"/>
<path d="M3058 1633 c12 -2 32 -2 45 0 12 2 2 4 -23 4 -25 0 -35 -2 -22 -4z"/>
<path d="M3378 1633 c12 -2 32 -2 45 0 12 2 2 4 -23 4 -25 0 -35 -2 -22 -4z"/>
<path d="M590 1616 c0 -2 7 -7 16 -10 8 -3 12 -2 9 4 -6 10 -25 14 -25 6z"/>
<path d="M1010 1614 c37 -8 88 -9 84 -2 -3 4 -26 7 -52 7 -26 -1 -40 -3 -32
-5z"/>
<path d="M1451 1616 c2 -2 20 -6 39 -10 25 -4 31 -3 20 4 -14 9 -69 15 -59 6z"/>
<path d="M2500 1604 l-25 -14 33 0 c17 0 32 4 32 9 0 17 -14 18 -40 5z"/>
<path d="M1178 1603 c12 -2 32 -2 45 0 12 2 2 4 -23 4 -25 0 -35 -2 -22 -4z"/>
<path d="M1288 1603 c23 -2 61 -2 85 0 23 2 4 4 -43 4 -47 0 -66 -2 -42 -4z"/>
<path d="M2348 1593 c7 -3 16 -2 19 1 4 3 -2 6 -13 5 -11 0 -14 -3 -6 -6z"/>
<path d="M3938 1593 c6 -2 18 -2 25 0 6 3 1 5 -13 5 -14 0 -19 -2 -12 -5z"/>
<path d="M2448 1583 c7 -3 16 -2 19 1 4 3 -2 6 -13 5 -11 0 -14 -3 -6 -6z"/>
<path d="M2168 1533 c7 -3 16 -2 19 1 4 3 -2 6 -13 5 -11 0 -14 -3 -6 -6z"/>
<path d="M1868 1513 c7 -3 16 -2 19 1 4 3 -2 6 -13 5 -11 0 -14 -3 -6 -6z"/>
<path d="M4390 1510 c8 -5 22 -9 30 -9 10 0 8 3 -5 9 -27 12 -43 12 -25 0z"/>
<path d="M1971 1493 c-13 -9 -6 -10 29 -2 64 14 71 18 26 16 -21 -1 -46 -7
-55 -14z"/>
<path d="M1855 1490 c-3 -5 1 -10 9 -10 9 0 16 5 16 10 0 6 -4 10 -9 10 -6 0
-13 -4 -16 -10z"/>
<path d="M1908 1492 c11 -7 10 -10 -3 -16 -9 -3 -28 -6 -41 -6 -13 0 -24 -5
-24 -10 0 -6 11 -8 28 -4 36 10 90 33 75 34 -6 0 -20 3 -30 6 -13 4 -14 3 -5
-4z"/>
<path d="M4448 1493 c6 -2 18 -2 25 0 6 3 1 5 -13 5 -14 0 -19 -2 -12 -5z"/>
<path d="M4528 1478 c17 -5 47 -5 65 0 27 7 22 8 -33 8 -55 0 -60 -1 -32 -8z"/>
<path d="M4670 1470 c0 -5 4 -10 9 -10 6 0 13 5 16 10 3 6 -1 10 -9 10 -9 0
-16 -4 -16 -10z"/>
<path d="M4610 1460 c0 -5 7 -7 15 -4 8 4 15 8 15 10 0 2 -7 4 -15 4 -8 0 -15
-4 -15 -10z"/>
<path d="M4690 1441 c-22 -7 -19 -9 23 -16 26 -4 51 -5 54 -1 4 3 -8 6 -26 6
-19 0 -30 4 -26 10 3 6 5 10 3 9 -2 -1 -14 -4 -28 -8z"/>
<path d="M1692 1431 c-20 -12 13 -23 46 -14 24 6 25 7 7 14 -27 10 -37 10 -53
0z m35 -7 c-3 -3 -12 -4 -19 -1 -8 3 -5 6 6 6 11 1 17 -2 13 -5z"/>
<path d="M1520 1419 c0 -5 5 -7 10 -4 6 3 10 8 10 11 0 2 -4 4 -10 4 -5 0 -10
-5 -10 -11z"/>
<path d="M4797 1423 c-3 -5 9 -9 26 -10 26 -1 28 0 12 7 -26 11 -33 12 -38 3z"/>
<path d="M1565 1410 c-3 -5 -2 -10 4 -10 5 0 13 5 16 10 3 6 2 10 -4 10 -5 0
-13 -4 -16 -10z"/>
<path d="M1628 1413 c7 -3 16 -2 19 1 4 3 -2 6 -13 5 -11 0 -14 -3 -6 -6z"/>
<path d="M1645 1400 c-13 -5 -14 -9 -5 -9 8 0 24 4 35 9 13 5 14 9 5 9 -8 0
-24 -4 -35 -9z"/>
<path d="M4869 1401 c7 -5 11 -14 7 -20 -5 -7 -1 -9 8 -5 20 8 20 20 0 28 -23
9 -31 7 -15 -3z"/>
<path d="M6169 1408 c-1 -2 -3 -13 -4 -25 -2 -19 1 -21 16 -12 33 17 81 -24
62 -53 -3 -7 -1 -8 5 -4 7 4 17 4 24 0 8 -5 6 -10 -8 -15 -16 -6 -16 -8 -2 -8
33 -2 28 19 -19 65 -26 26 -49 42 -51 36 -2 -7 -8 -12 -14 -12 -6 0 -8 7 -4
15 4 12 0 23 -5 13z"/>
<path d="M4830 1390 c8 -5 20 -10 25 -10 6 0 3 5 -5 10 -8 5 -19 10 -25 10 -5
0 -3 -5 5 -10z"/>
<path d="M1573 1383 c-7 -2 -13 -9 -13 -15 0 -7 4 -7 13 0 6 5 21 12 32 15
l20 5 -20 0 c-11 0 -26 -2 -32 -5z"/>
<path d="M1512 1354 c-14 -16 -5 -18 17 -5 7 5 9 11 5 14 -5 3 -15 -1 -22 -9z"/>
<path d="M4910 1366 c0 -2 9 -6 20 -9 11 -3 18 -1 14 4 -5 9 -34 13 -34 5z"/>
<path d="M5048 1353 c7 -3 16 -2 19 1 4 3 -2 6 -13 5 -11 0 -14 -3 -6 -6z"/>
<path d="M1365 1341 c-6 -11 13 -26 22 -17 4 3 0 6 -8 6 -11 0 -11 2 1 10 9 6
10 10 3 10 -6 0 -14 -4 -18 -9z"/>
<path d="M5088 1343 c7 -3 16 -2 19 1 4 3 -2 6 -13 5 -11 0 -14 -3 -6 -6z"/>
<path d="M1450 1330 c-18 -12 -2 -12 25 0 13 6 15 9 5 9 -8 0 -22 -4 -30 -9z"/>
<path d="M5058 1313 c7 -3 16 -2 19 1 4 3 -2 6 -13 5 -11 0 -14 -3 -6 -6z"/>
<path d="M1196 1265 c-18 -14 -18 -14 0 -13 11 0 28 -3 38 -7 15 -6 17 -5 11
5 -6 10 -3 12 15 7 13 -3 19 -2 14 3 -18 17 -59 20 -78 5z m41 -1 c-3 -3 -12
-4 -19 -1 -8 3 -5 6 6 6 11 1 17 -2 13 -5z"/>
<path d="M1300 1270 c-8 -5 -10 -10 -5 -10 6 0 17 5 25 10 8 5 11 10 5 10 -5
0 -17 -5 -25 -10z"/>
<path d="M5210 1270 c8 -5 20 -10 25 -10 6 0 3 5 -5 10 -8 5 -19 10 -25 10 -5
0 -3 -5 5 -10z"/>
<path d="M1120 1259 c0 -5 5 -7 10 -4 6 3 10 8 10 11 0 2 -4 4 -10 4 -5 0 -10
-5 -10 -11z"/>
<path d="M5180 1260 c8 -5 20 -10 25 -10 6 0 3 5 -5 10 -8 5 -19 10 -25 10 -5
0 -3 -5 5 -10z"/>
<path d="M5254 1253 c8 -8 56 -11 51 -3 -3 4 -16 8 -30 8 -14 0 -24 -3 -21 -5z"/>
<path d="M5225 1240 c3 -5 11 -10 16 -10 6 0 7 5 4 10 -3 6 -11 10 -16 10 -6
0 -7 -4 -4 -10z"/>
<path d="M6385 1210 c-3 -5 -1 -10 4 -10 6 0 11 5 11 10 0 6 -2 10 -4 10 -3 0
-8 -4 -11 -10z"/>
<path d="M1060 1160 c-8 -5 -10 -10 -5 -10 6 0 17 5 25 10 8 5 11 10 5 10 -5
0 -17 -5 -25 -10z"/>
<path d="M5485 1160 c3 -5 11 -10 16 -10 6 0 7 5 4 10 -3 6 -11 10 -16 10 -6
0 -7 -4 -4 -10z"/>
</g>
</svg>
